HIERARCHY
ROOT SpineBase
{
  OFFSET 0.000000 0.000000 0.000000
  CHANNELS 6 Xposition Yposition Zposition Zrotation Xrotation Yrotation
  JOINT SpineMid
  {
    OFFSET 0.000000 30.621492 0.000000
    CHANNELS 3 Zrotation Xrotation Yrotation
    JOINT SpineShoulder
    {
      OFFSET 0.147324 22.726566 -0.801188
      CHANNELS 3 Zrotation Xrotation Yrotation
      JOINT Neck
      {
        OFFSET 0.124672 7.517398 -0.591091
        CHANNELS 3 Zrotation Xrotation Yrotation
        JOINT Head
        {
          OFFSET 4.820921 13.644186 0.568343
          CHANNELS 3 Zrotation Xrotation Yrotation
          End Site
          {
            OFFSET 0 0 0
          }
        }
      }
      JOINT ShoulderLeft
      {
        OFFSET -11.422359 -2.101065 -12.672715
        CHANNELS 3 Zrotation Xrotation Yrotation
        JOINT ElbowLeft
        {
          OFFSET -6.781493 -25.502985 -6.779250
          CHANNELS 3 Zrotation Xrotation Yrotation
          JOINT WristLeft
          {
            OFFSET 0.093154 -23.777314 -4.597816
            CHANNELS 3 Zrotation Xrotation Yrotation
            JOINT HandLeft
            {
              OFFSET -0.661348 -7.949818 1.676377
              CHANNELS 3 Zrotation Xrotation Yrotation
              JOINT HandTipLeft
              {
                OFFSET 0.737003 -7.930722 -0.123267
                CHANNELS 3 Zrotation Xrotation Yrotation
                End Site
                {
                  OFFSET 0 0 0
                }
              }
              JOINT ThumbLeft
              {
                OFFSET 3.486222 0.634932 0.552494
                CHANNELS 3 Zrotation Xrotation Yrotation
                End Site
                {
                  OFFSET 0 0 0
                }
              }
            }
          }
        }
      }
      JOINT ShoulderRight
      {
        OFFSET 12.115407 -4.447422 13.216824
        CHANNELS 3 Zrotation Xrotation Yrotation
        JOINT ElbowRight
        {
          OFFSET 2.069450 -32.060107 4.353264
          CHANNELS 3 Zrotation Xrotation Yrotation
          JOINT WristRight
          {
            OFFSET -0.216089 -24.058695 -1.946525
            CHANNELS 3 Zrotation Xrotation Yrotation
            JOINT HandRight
            {
              OFFSET 0.407923 -3.473836 1.678525
              CHANNELS 3 Zrotation Xrotation Yrotation
              JOINT HandTipRight
              {
                OFFSET -1.081189 -5.193707 -1.876823
                CHANNELS 3 Zrotation Xrotation Yrotation
                End Site
                {
                  OFFSET 0 0 0
                }
              }
              JOINT ThumbRight
              {
                OFFSET 3.064666 -0.189290 -0.860012
                CHANNELS 3 Zrotation Xrotation Yrotation
                End Site
                {
                  OFFSET 0 0 0
                }
              }
            }
          }
        }
      }
    }
  }
  JOINT HipLeft
  {
    OFFSET -4.305172 1.828576 -8.984061
    CHANNELS 3 Zrotation Xrotation Yrotation
    JOINT KneeLeft
    {
      OFFSET -7.144886 -34.328082 -2.682253
      CHANNELS 3 Zrotation Xrotation Yrotation
      JOINT AnkleLeft
      {
        OFFSET -4.728714 -38.149172 10.346759
        CHANNELS 3 Zrotation Xrotation Yrotation
        JOINT FootLeft
        {
          OFFSET 4.937695 -4.165984 -6.210289
          CHANNELS 3 Zrotation Xrotation Yrotation
          End Site
          {
            OFFSET 0 0 0
          }
        }
      }
    }
  }
  JOINT HipRight
  {
    OFFSET 6.047684 0.011211 2.056393
    CHANNELS 3 Zrotation Xrotation Yrotation
    JOINT KneeRight
    {
      OFFSET 0.190289 -37.647023 -1.630989
      CHANNELS 3 Zrotation Xrotation Yrotation
      JOINT AnkleRight
      {
        OFFSET -13.081444 -35.278135 9.134517
        CHANNELS 3 Zrotation Xrotation Yrotation
        JOINT FootRight
        {
          OFFSET -0.499055 -5.310944 -5.869100
          CHANNELS 3 Zrotation Xrotation Yrotation
          End Site
          {
            OFFSET 0 0 0
          }
        }
      }
    }
  }
}
MOTION
Frames: 14
Frame Time: 0.033333
-78.892487 77.727834 306.494944 -0.015274 -10.445087 -26.462712 0.099897 -0.757475 26.547614 0.047887 -0.185225 0.102399 5.027687 -0.684274 3.489313 0.000000 0.000000 0.000000 1.435022 -2.294205 3.142155 -0.590750 8.456576 -3.398642 23.714476 12.989601 0.642426 -23.254629 -5.878058 -5.664851 0.000000 0.000000 0.000000 0.000000 0.000000 0.000000 8.743286 3.682489 -0.647489 9.582338 6.299956 -3.763831 -101.472351 59.686075 31.241190 115.116875 -39.741358 80.134602 0.000000 0.000000 0.000000 0.000000 0.000000 0.000000 4.282947 22.638154 21.512362 -12.007626 -6.686552 2.061415 -0.136979 12.459792 12.820165 0.000000 0.000000 0.000000 4.162344 22.324872 23.873994 -15.591712 -20.419854 2.970471 3.534123 17.359478 -5.031034 0.000000 0.000000 0.000000
-79.589715 77.345869 306.922283 -0.734795 -13.392111 -26.173023 -0.020753 -0.664088 26.173590 0.430178 -0.182836 0.078904 6.039205 0.927718 3.561828 0.000000 0.000000 0.000000 2.323136 0.171725 2.914300 -0.219861 9.611768 -3.627691 20.420216 10.013823 1.638936 -19.253886 -9.376521 -5.156735 0.000000 0.000000 0.000000 0.000000 0.000000 0.000000 10.041259 4.131517 -1.128625 11.128637 6.883509 -4.506986 -94.388081 29.946573 -14.194625 99.734516 -12.477671 39.136275 0.000000 0.000000 0.000000 0.000000 0.000000 0.000000 5.722571 28.181625 19.346753 -15.149178 -9.473969 2.008443 1.181458 14.449849 13.121711 0.000000 0.000000 0.000000 15.031074 36.018531 16.992369 -33.405609 -28.175217 -1.294404 10.386501 9.320654 -9.468250 0.000000 0.000000 0.000000
-81.017668 77.307707 308.433705 -2.233261 -17.557090 -26.647327 -0.117098 -0.465382 26.371990 0.536335 -0.301110 0.031020 8.342388 3.128063 3.522815 0.000000 0.000000 0.000000 4.125147 4.002137 2.447234 0.279103 10.825179 -3.892877 17.845202 9.210182 1.998965 -15.688605 -10.067134 -4.567897 0.000000 0.000000 0.000000 0.000000 0.000000 0.000000 12.438194 5.349383 -2.007615 12.463452 8.170779 -5.492281 -91.974694 14.000465 -25.225474 87.357727 -0.020742 23.536493 0.000000 0.000000 0.000000 0.000000 0.000000 0.000000 8.382305 36.572751 16.202032 -19.181033 -14.076169 2.015362 -0.197816 11.992213 12.578975 0.000000 0.000000 0.000000 31.294119 52.189096 2.871827 -52.178714 -37.454961 -9.210552 17.934073 6.964415 -18.148543 0.000000 0.000000 0.000000
-83.049012 77.788969 310.746973 -4.463217 -22.129619 -27.505599 -0.174535 -0.558803 26.677531 0.457054 -0.514380 -0.038601 11.770947 5.643073 3.165925 0.000000 0.000000 0.000000 6.510281 8.790045 1.781977 1.342133 11.976907 -4.346715 15.344308 9.049244 2.200206 -12.371358 -10.312786 -3.926514 0.000000 0.000000 0.000000 0.000000 0.000000 0.000000 15.609973 6.479533 -3.327329 14.005356 10.084090 -6.814099 -99.115739 20.239812 -20.728258 87.160791 12.660386 23.069512 0.000000 0.000000 0.000000 0.000000 0.000000 0.000000 13.277809 46.311796 10.884546 -23.534844 -18.159378 1.805970 -1.503050 9.711703 12.466872 0.000000 0.000000 0.000000 60.035541 64.304329 -25.527847 -71.291348 -45.895274 -20.678674 25.774282 3.484739 -30.314907 0.000000 0.000000 0.000000
-85.552023 78.659507 313.713707 -7.760211 -27.900572 -29.661115 -0.111120 -0.511631 27.707805 0.486239 -0.381930 -0.137287 17.034014 8.439001 1.922178 0.000000 0.000000 0.000000 9.471117 14.253122 0.780890 2.389955 13.390168 -4.845285 13.842665 9.167324 2.370811 -10.375191 -11.840697 -3.514483 0.000000 0.000000 0.000000 0.000000 0.000000 0.000000 19.441441 7.513598 -5.227487 15.253990 13.442816 -8.664894 -107.517363 36.021727 -3.948914 67.853753 27.023961 34.248106 0.000000 0.000000 0.000000 0.000000 0.000000 0.000000 19.636067 56.570195 3.983161 -25.804317 -21.963130 2.346725 -4.301629 7.000937 11.347510 0.000000 0.000000 0.000000 100.030158 67.461234 -66.736560 -83.996455 -53.772913 -29.223759 27.459218 5.145485 -39.888932 0.000000 0.000000 0.000000
-88.144859 78.972139 316.707302 -11.500428 -32.991176 -32.274810 -0.050830 -0.494470 28.750597 0.367504 -0.114332 -0.202810 23.361257 9.491743 0.299895 0.000000 0.000000 0.000000 12.588889 19.623252 -0.482627 3.908848 14.464881 -5.347513 12.043438 9.117245 2.566163 -7.776764 -10.607333 -2.844159 0.000000 0.000000 0.000000 0.000000 0.000000 0.000000 23.394656 7.079920 -7.260344 16.719772 18.137920 -11.212747 -99.556661 25.021851 -13.848484 42.224214 50.941963 34.820252 0.000000 0.000000 0.000000 0.000000 0.000000 0.000000 28.062651 65.861614 -5.488838 -26.011041 -25.907107 3.549638 -7.731194 4.410497 9.892058 0.000000 0.000000 0.000000 127.609625 62.949362 -95.758488 -89.711133 -59.240498 -33.477688 27.921736 9.689977 -46.938847 0.000000 0.000000 0.000000
-89.609422 78.570316 319.154733 -13.838727 -37.464329 -34.331095 -0.138605 -0.597890 29.523142 0.238556 0.089807 -0.197657 28.635227 9.654019 -1.363649 0.000000 0.000000 0.000000 14.710237 23.979131 -1.593351 5.409786 14.445749 -5.970923 9.771807 8.446965 2.825101 -4.754741 -9.336348 -2.317275 0.000000 0.000000 0.000000 0.000000 0.000000 0.000000 26.192122 7.019729 -9.192303 15.971853 20.764480 -12.285242 -105.060064 39.046872 2.514608 40.226477 36.694066 37.642580 0.000000 0.000000 0.000000 0.000000 0.000000 0.000000 37.072569 72.603217 -16.511541 -25.323915 -28.918069 4.793317 -10.445473 2.274057 8.263531 0.000000 0.000000 0.000000 141.876754 58.638019 -113.120754 -85.386727 -65.678089 -30.775719 22.712959 8.221078 -50.372547 0.000000 0.000000 0.000000
-90.370422 77.843348 321.349919 -15.132210 -41.106198 -35.795255 -0.430497 -0.758781 30.125217 0.537840 0.662773 -0.245050 32.535464 8.596876 -2.479359 0.000000 0.000000 0.000000 15.414916 26.655678 -2.024536 4.936300 14.181545 -5.863399 13.288176 8.973118 2.961131 -8.400481 -8.299447 -3.271044 0.000000 0.000000 0.000000 0.000000 0.000000 0.000000 27.841336 7.420817 -10.627380 14.045274 20.378847 -11.784154 -132.720183 53.881567 41.688816 47.116289 11.950538 40.500250 0.000000 0.000000 0.000000 0.000000 0.000000 0.000000 47.636756 77.242089 -29.316671 -24.341097 -31.035306 5.905176 -12.458432 0.445223 6.651795 0.000000 0.000000 0.000000 145.536672 58.813371 -119.495732 -63.492133 -68.208738 -12.489847 16.453537 11.172853 -49.773496 0.000000 0.000000 0.000000
-89.118135 76.095666 321.367389 -13.702783 -42.679385 -35.226053 -0.502723 -0.776844 29.985169 -0.230331 0.504879 0.039340 35.824550 5.815532 -2.783929 0.000000 0.000000 0.000000 14.646830 27.672638 -1.652453 4.247857 14.659437 -5.736461 17.036002 6.292597 3.830450 -13.039499 -4.368721 -4.398423 0.000000 0.000000 0.000000 0.000000 0.000000 0.000000 28.215133 7.350597 -11.261126 11.200393 19.837240 -10.554703 -141.300220 58.513510 68.505450 46.876883 -5.552061 33.848350 0.000000 0.000000 0.000000 0.000000 0.000000 0.000000 44.609166 78.510730 -28.410198 -23.168631 -31.448836 6.408201 -12.886000 0.095037 6.080055 0.000000 0.000000 0.000000 140.875178 63.219128 -116.749072 -38.509616 -64.777649 8.560619 9.339300 12.504923 -47.670007 0.000000 0.000000 0.000000
-85.767876 73.614983 319.245677 -9.273775 -42.063756 -32.449026 -0.674138 -0.533949 29.167030 -1.533572 0.072074 0.527456 36.953870 2.214318 -1.617798 0.000000 0.000000 0.000000 11.409629 25.863049 0.253860 4.308703 12.147743 -6.071334 19.215739 6.751868 3.474829 -14.965837 -1.763096 -4.874870 0.000000 0.000000 0.000000 0.000000 0.000000 0.000000 26.868655 7.004271 -10.655186 8.782652 18.026509 -9.092311 -131.205733 58.613892 62.554334 44.399658 -3.701190 30.303753 0.000000 0.000000 0.000000 0.000000 0.000000 0.000000 22.830310 75.886455 -8.861956 -21.069985 -29.786959 6.378668 -11.553880 1.224385 6.329149 0.000000 0.000000 0.000000 120.027956 71.393954 -97.408233 -18.999709 -54.722197 22.191774 3.533872 20.836917 -45.291640 0.000000 0.000000 0.000000
-82.182375 71.132991 317.079060 -4.443260 -40.866013 -28.425153 -1.362941 0.365213 27.288205 -2.001162 -1.050206 0.705908 35.927655 -0.743714 0.347554 0.000000 0.000000 0.000000 6.979000 23.069478 2.626415 3.599894 9.625379 -6.246571 22.411736 5.876305 3.098137 -19.091905 0.897222 -5.180731 0.000000 0.000000 0.000000 0.000000 0.000000 0.000000 24.191780 7.545493 -9.585868 6.572994 15.298183 -7.445411 -130.081234 58.717672 65.121150 51.192411 -9.016957 32.231614 0.000000 0.000000 0.000000 0.000000 0.000000 0.000000 9.380849 70.827534 2.099439 -19.521106 -27.046002 5.502062 -9.339080 2.237045 7.340479 0.000000 0.000000 0.000000 67.539589 74.009400 -46.413536 -5.453762 -40.184097 26.585696 -6.344586 25.860165 -38.568269 0.000000 0.000000 0.000000
-78.540019 68.962875 314.889190 0.152781 -39.351684 -23.722679 -1.470928 0.950919 24.349512 -2.776879 -1.557181 1.036866 34.359787 -2.668303 2.012599 0.000000 0.000000 0.000000 3.213990 19.172486 4.684546 2.003049 7.621369 -6.327258 26.053210 4.231261 2.544266 -21.932033 1.005954 -5.280480 0.000000 0.000000 0.000000 0.000000 0.000000 0.000000 21.364857 7.806195 -8.438623 4.999734 12.409452 -6.133355 -128.924725 58.573938 66.709508 71.125570 -20.569085 42.756555 0.000000 0.000000 0.000000 0.000000 0.000000 0.000000 2.084710 65.757259 6.256359 -17.775044 -25.409274 4.745378 -7.332170 3.853058 8.839186 0.000000 0.000000 0.000000 29.750285 63.774761 -10.456066 4.861786 -24.242930 24.957784 -14.627009 27.788374 -34.116748 0.000000 0.000000 0.000000
-74.933596 67.445832 312.731408 4.280866 -37.582980 -19.475424 -1.521665 1.425356 21.532536 -3.322737 -2.135760 1.294324 31.881895 -3.894009 3.604443 0.000000 0.000000 0.000000 -0.230558 14.694498 6.641777 0.408530 6.496596 -6.549085 29.119646 1.734822 2.068017 -24.804021 4.585932 -4.684751 0.000000 0.000000 0.000000 0.000000 0.000000 0.000000 18.679213 8.225550 -7.414485 3.636833 9.955193 -5.135197 -129.707998 60.456559 74.041215 89.062072 -30.595219 56.075842 0.000000 0.000000 0.000000 0.000000 0.000000 0.000000 -4.752076 60.767136 9.571659 -15.010695 -24.381100 4.404587 -5.852402 5.970967 10.378219 0.000000 0.000000 0.000000 13.853854 50.194378 3.000001 13.957736 -9.871442 20.045038 -20.604817 29.122640 -31.225303 0.000000 0.000000 0.000000
-71.973000 66.685801 310.813102 7.280262 -35.665840 -15.187642 -1.139127 1.523843 18.075686 -3.450699 -2.538335 1.447924 28.746995 -4.294578 4.818589 0.000000 0.000000 0.000000 -3.281165 10.314459 8.392110 -0.830070 6.441381 -6.854756 31.698262 -2.381480 2.292566 -27.304141 6.612317 -3.842757 0.000000 0.000000 0.000000 0.000000 0.000000 0.000000 16.320913 8.792971 -6.597303 3.023406 8.669259 -4.791548 -127.968430 60.842466 72.874602 107.421315 -31.611368 69.804899 0.000000 0.000000 0.000000 0.000000 0.000000 0.000000 -8.388135 56.386741 9.821288 -12.024557 -23.560343 4.278722 -5.081138 7.947151 11.966830 0.000000 0.000000 0.000000 7.548837 38.302089 6.624294 20.043102 0.408451 14.164047 -21.607437 27.415127 -31.551520 0.000000 0.000000 0.000000
